# File created by Blade
# Date/Time:  Wed Jan 21 14:28:11 2015
# Frame Rate: 120.000 fps
#------------------------------------------------------
:FULLY-SPECIFIED
:DEGREES
383
root 18.952713 35.497668 -21.266121 -171.192263 -1.795872 -178.270073
Spine -10.093176 -1.815892 0.698131
Head -2.869348 -0.782580 1.822909
LeftShoulder -23.828865 -2.554152 11.408443
LeftArm -51.688967 4.648586 -87.419590
LeftForeArm 15.046122 -0.000000 -0.931421
LeftHand -7.462186 -0.000000 -40.724866
LeftHandThumb1 -26.253704 0.000000 33.147579
RightShoulder -27.078924 -30.734234 4.493759
RightArm -14.079014 -18.870130 87.639473
RightForeArm -42.967810 -0.000000 8.241610
RightHand 0.835617 -0.000000 44.993967
RightHandThumb1 -24.326973 -0.000000 -32.862282
LeftUpLeg -0.432230 9.283858 2.748738
LeftLeg -6.670550 -0.000000 0.000000
LeftFoot -20.109209 27.606789 -12.281171
LeftToeBase 27.292079 -0.000000 -0.000000
RightUpLeg -2.293817 -12.274052 0.737553
RightLeg -3.398701 -0.000000 0.000000
RightFoot -19.842349 -21.203135 16.479323
RightToeBase 25.531182 -0.000000 -0.000000
384
root 18.956565 35.495018 -21.260808 -170.988373 -1.821647 -178.249722
Spine -10.493742 -1.805519 0.736800
Head -2.524067 -0.831635 1.801000
LeftShoulder -23.814058 -2.901761 11.283152
LeftArm -51.532745 4.701835 -87.618790
LeftForeArm 14.849826 0.000000 -0.907319
LeftHand -7.544546 -0.000000 -40.360120
LeftHandThumb1 -26.253704 0.000000 33.147579
RightShoulder -27.051855 -30.346646 4.791701
RightArm -13.993381 -19.177051 87.555315
RightForeArm -42.777013 0.000000 8.354966
RightHand 0.625312 -0.000000 44.796675
RightHandThumb1 -24.326973 -0.000000 -32.862282
LeftUpLeg -0.629974 9.326816 2.738157
LeftLeg -6.720175 -0.000000 0.000000
LeftFoot -20.075787 27.590709 -12.200798
LeftToeBase 27.370825 -0.000000 -0.000000
RightUpLeg -2.480783 -12.294979 0.810897
RightLeg -3.450425 -0.000000 0.000000
RightFoot -19.808679 -21.202812 16.432761
RightToeBase 25.539074 -0.000000 -0.000000
385
root 18.960221 35.492280 -21.255786 -170.776101 -1.841868 -178.229031
Spine -10.927902 -1.815469 0.794050
Head -2.119967 -0.877154 1.762054
LeftShoulder -23.769819 -3.365332 11.186270
LeftArm -51.521340 4.687261 -87.793911
LeftForeArm 14.775665 -0.000000 -0.822884
LeftHand -7.624563 -0.000000 -40.057681
LeftHandThumb1 -26.253704 0.000000 33.147579
RightShoulder -27.003524 -29.983099 5.063409
RightArm -13.859819 -19.379109 87.435828
RightForeArm -42.725114 -0.000000 8.482102
RightHand 0.612400 -0.000000 44.713961
RightHandThumb1 -24.326973 -0.000000 -32.862282
LeftUpLeg -0.816673 9.364976 2.727363
LeftLeg -6.803191 -0.000000 0.000000
LeftFoot -20.039320 27.568925 -12.167754
LeftToeBase 27.396467 -0.000000 -0.000000
RightUpLeg -2.667335 -12.283108 0.884033
RightLeg -3.521689 -0.000000 0.000000
RightFoot -19.776920 -21.223639 16.413297
RightToeBase 25.521189 -0.000000 -0.000000
386
root 18.962736 35.489152 -21.253332 -170.571965 -1.857696 -178.218517
Spine -11.337933 -1.816338 0.827291
Head -1.791451 -0.912088 1.746244
LeftShoulder -23.773907 -3.770559 11.071063
LeftArm -51.378684 4.768589 -88.022469
LeftForeArm 14.610556 -0.000000 -0.822857
LeftHand -7.589416 -0.000000 -39.758201
LeftHandThumb1 -26.253704 0.000000 33.147579
RightShoulder -26.954923 -29.517071 5.323427
RightArm -13.782805 -19.651065 87.302698
RightForeArm -42.510500 0.000000 8.555112
RightHand 0.558672 -0.000000 44.585732
RightHandThumb1 -24.326973 -0.000000 -32.862282
LeftUpLeg -0.996914 9.415883 2.706104
LeftLeg -6.870710 -0.000000 0.000000
LeftFoot -19.998748 27.540573 -12.091508
LeftToeBase 27.430448 -0.000000 -0.000000
RightUpLeg -2.838756 -12.292724 0.942493
RightLeg -3.597089 -0.000000 0.000000
RightFoot -19.759999 -21.229375 16.386457
RightToeBase 25.577281 -0.000000 -0.000000
387
root 18.968670 35.487328 -21.247055 -170.347550 -1.951527 -178.225092
Spine -11.775417 -1.911871 0.843349
Head -1.439722 -0.901796 1.783795
LeftShoulder -23.761441 -4.189818 10.960874
LeftArm -51.254193 4.794361 -88.210222
LeftForeArm 14.533162 -0.000000 -0.749385
LeftHand -7.642768 -0.000000 -39.428839
LeftHandThumb1 -26.253704 0.000000 33.147579
RightShoulder -26.941981 -29.136192 5.665862
RightArm -13.591539 -19.956281 87.109447
RightForeArm -42.137788 0.000000 8.649314
RightHand 0.519984 -0.000000 44.484989
RightHandThumb1 -24.326973 -0.000000 -32.862282
LeftUpLeg -1.235822 9.377248 2.680865
LeftLeg -6.900343 -0.000000 0.000000
LeftFoot -19.959657 27.516744 -12.045560
LeftToeBase 27.457269 -0.000000 -0.000000
RightUpLeg -3.029137 -12.368508 1.005884
RightLeg -3.671512 -0.000000 0.000000
RightFoot -19.734474 -21.254727 16.343714
RightToeBase 25.556688 -0.000000 -0.000000
